<svg xmlns="http://www.w3.org/2000/svg" viewBox="0 0 64 64" fill="none">
  <rect width="64" height="64" rx="12" fill="#1a1a2e"/>
  <path d="M32 14c-9.94 0-18 8.06-18 18s8.06 18 18 18 18-8.06 18-18-8.06-18-18-18zm0 4c7.73 0 14 6.27 14 14s-6.27 14-14 14-14-6.27-14-14 6.27-14 14-14z" fill="#e94560"/>
  <circle cx="26" cy="30" r="3" fill="#e94560"/>
  <circle cx="38" cy="30" r="3" fill="#e94560"/>
  <path d="M24 38c0 0 3 4 8 4s8-4 8-4" stroke="#e94560" stroke-width="2.5" stroke-linecap="round"/>
  <rect x="18" y="27" width="28" height="3" rx="1.5" fill="#0f3460" opacity="0.7"/>
</svg>
